#N canvas 963 135 785 705 10;
#X obj 101 101 cnv 15 173 148 empty empty empty 20 12 0 14 -232576
-66577 0;
#X obj 251 142 vsl 10 95 0 127 0 0 empty empty HP 0 -9 0 10 -232576
-1 -1 2600 1;
#X obj 335 400 mtof;
#X obj 374 438 tgl 15 0 empty empty empty 17 7 0 10 -262144 -1 -1 1
1;
#X obj 369 482 metro 100;
#X obj 283 349 inlet~;
#X obj 247 107 tgl 15 0 empty empty bypass -35 7 0 10 -232576 -1 -1
1 1;
#X obj 383 31 loadbang;
#X msg 380 66 1;
#X obj 214 425 *~;
#X obj 106 576 outlet~;
#X msg 329 211 1;
#X obj 222 485 *~;
#X obj 329 157 sel 0 1;
#X msg 364 212 0;
#N canvas 0 0 450 300 (subpatch) 0;
#X array \$0-hpf 120 float 5;
#A 0 0 0 0 0 0 0 0 0 0 0 0 0 0 0 0 0 0 0 0 0 0 0 0 0 0 0 0 0 0 0 0
0 0 0 0 0 0 0 0 0 0 0 0 0 0 0 0 0 0 0 0 0 0 0 0 0 0 0 0 0 0 0 0 0 0
0 0 0 0 0 0 0 0 0 0 0 0 0 0 0 0 0 0 0 0 0 0 0 0 0 0 0 0 0 0 0 0 0 0
0 0 0 0 0 0 0 0 0 0 0 0 0 0 0 0 0 0 0 0 0;
#X coords 0 1 119 -1 100 100 1 0 0;
#X restore 112 139 graph;
#X text 111 103 hi-pass filter;
#X obj 330 549 tabwrite~ \$0-hpf;
#X obj 313 430 hip~;
#X msg 425 68 50;
#X obj 313 463 hip~;
#X connect 1 0 2 0;
#X connect 2 0 18 1;
#X connect 2 0 20 1;
#X connect 3 0 4 0;
#X connect 4 0 17 0;
#X connect 5 0 9 0;
#X connect 5 0 18 0;
#X connect 6 0 9 1;
#X connect 6 0 13 0;
#X connect 7 0 8 0;
#X connect 7 0 19 0;
#X connect 8 0 6 0;
#X connect 8 0 3 0;
#X connect 9 0 10 0;
#X connect 11 0 12 1;
#X connect 12 0 10 0;
#X connect 12 0 17 0;
#X connect 13 0 11 0;
#X connect 13 1 14 0;
#X connect 14 0 12 1;
#X connect 18 0 20 0;
#X connect 19 0 1 0;
#X connect 20 0 12 0;
#X coords 0 -1 1 1 175 150 1 100 100;
