#N canvas 290 100 785 705 10;
#X obj 101 101 cnv 15 173 148 empty empty empty 20 12 0 14 -204800
-66577 0;
#X obj 252 140 vsl 10 95 0 127 0 0 empty empty LP 0 -9 0 10 -204800
-1 -1 2500 1;
#X text 115 104 lowpass filter;
#X obj 189 390 lop~;
#X obj 347 511 tabwrite~ \$0-lpf;
#X obj 351 454 tgl 15 0 empty empty empty 17 7 0 10 -262144 -1 -1 1
1;
#X obj 350 477 metro 100;
#X obj 26 291 inlet~;
#X obj 251 106 tgl 15 0 empty empty bypass -35 7 0 10 -204800 -1 -1
0 1;
#X obj 388 12 loadbang;
#X msg 380 66 1;
#X obj 47 395 *~;
#X obj 70 564 outlet~;
#X msg 323 190 1;
#X obj 189 431 *~;
#X obj 329 157 sel 0 1;
#X msg 352 191 0;
#N canvas 0 0 450 300 (subpatch) 0;
#X array \$0-lpf 120 float 5;
#A 0 0 0 0 0 0 0 0 0 0 0 0 0 0 0 0 0 0 0 0 0 0 0 0 0 0 0 0 0 0 0 0
0 0 0 0 0 0 0 0 0 0 0 0 0 0 0 0 0 0 0 0 0 0 0 0 0 0 0 0 0 0 0 0 0 0
0 0 0 0 0 0 0 0 0 0 0 0 0 0 0 0 0 0 0 0 0 0 0 0 0 0 0 0 0 0 0 0 0 0
0 0 0 0 0 0 0 0 0 0 0 0 0 0 0 0 0 0 0 0 0;
#X coords 0 1 119 -1 100 100 1 0 0;
#X restore 112 139 graph;
#X msg 272 37 100;
#X msg 324 51 0;
#X obj 374 403 loadbang;
#X msg 358 429 1, f 2;
#X obj 234 299 mtof;
#X connect 1 0 22 0;
#X connect 3 0 14 0;
#X connect 5 0 6 0;
#X connect 6 0 4 0;
#X connect 7 0 3 0;
#X connect 7 0 11 0;
#X connect 8 0 11 1;
#X connect 8 0 15 0;
#X connect 9 0 10 0;
#X connect 9 0 18 0;
#X connect 9 0 19 0;
#X connect 10 0 8 0;
#X connect 11 0 12 0;
#X connect 13 0 14 1;
#X connect 14 0 12 0;
#X connect 14 0 4 0;
#X connect 15 0 13 0;
#X connect 15 1 16 0;
#X connect 16 0 14 1;
#X connect 18 0 1 0;
#X connect 20 0 21 0;
#X connect 21 0 5 0;
#X connect 22 0 3 1;
#X coords 0 -1 1 1 175 150 1 100 100;
