#N canvas 124 96 711 545 10;
#X obj 220 19 inlet midi;
#X obj 256 62 route 1 2 3 4 5 6 7 8;
#X obj 101 101 cnv 15 98 73 empty empty empty 20 12 0 14 -204786 -66577
0;
#X obj 109 117 vsl 20 50 0 1 0 0 empty empty level 0 -9 0 10 -204786
-1 -1 3000 1;
#X obj 166 118 hradio 10 1 0 2 empty empty on/off 0 -8 0 10 -204786
-1 -1 1;
#X obj 161 419 outlet~;
#X obj 255 170 unpack f f;
#X obj 191 240 noise~;
#X obj 235 339 *~;
#X obj 200 376 *~;
#X obj 45 43 loadbang;
#X msg 45 66 0;
#X msg 77 66 1;
#X msg 275 284 0;
#X obj 284 318 +;
#X obj 320 280 t b f;
#X obj 296 246 * 0.0001;
#X text 129 131 white noise;
#X obj 475 315 switch~;
#X obj 546 190 sel 0 1;
#X msg 532 229 1;
#X msg 574 229 0;
#X connect 0 0 1 0;
#X connect 1 0 6 0;
#X connect 1 1 6 0;
#X connect 1 2 6 0;
#X connect 1 3 6 0;
#X connect 1 4 6 0;
#X connect 1 5 6 0;
#X connect 1 6 6 0;
#X connect 1 7 6 0;
#X connect 1 8 6 0;
#X connect 3 0 9 1;
#X connect 4 0 19 0;
#X connect 6 1 16 0;
#X connect 7 0 8 0;
#X connect 8 0 9 0;
#X connect 9 0 5 0;
#X connect 10 0 11 0;
#X connect 10 0 12 0;
#X connect 10 0 13 0;
#X connect 11 0 3 0;
#X connect 12 0 4 0;
#X connect 13 0 14 0;
#X connect 14 0 8 1;
#X connect 15 0 14 0;
#X connect 15 1 14 1;
#X connect 16 0 15 0;
#X connect 19 0 20 0;
#X connect 19 1 21 0;
#X connect 20 0 18 0;
#X connect 21 0 18 0;
#X coords 0 -1 1 1 100 75 1 100 100;
