#N canvas 596 67 925 849 10;
#X obj 101 101 midi_in_poly;
#X obj 526 201 master_v~;
#X obj 451 101 verb;
#X obj 351 200 lowpassfilter;
#X obj 351 349 hipassfilter;
#X obj 351 126 noise_osc;
#X obj 101 126 oscillator;
#X obj 101 311 oscillator;
#X connect 0 0 5 0;
#X connect 0 0 6 0;
#X connect 0 0 7 0;
#X connect 2 0 1 0;
#X connect 3 0 4 0;
#X connect 4 0 2 0;
#X connect 5 0 3 0;
#X connect 6 0 3 0;
#X connect 7 0 3 0;
#X coords 0 -1 1 1 600 400 2 100 100;
