#N canvas 952 130 568 602 10;
#X obj 467 338 inlet~;
#X obj 98 428 freeverb~;
#X obj 153 544 outlet~;
#X obj 101 101 cnv 15 198 98 empty empty empty 20 12 0 14 -262130 -1
0;
#X obj 113 126 vsl 25 50 0 1 0 0 empty empty size 0 59 0 10 -262130
-1 -1 4165 1;
#X obj 145 126 vsl 25 50 0 1 0 0 empty empty damp 0 59 0 10 -262130
-1 -1 2450 1;
#X obj 181 126 vsl 25 50 0 1 0 0 empty empty width 0 59 0 10 -262130
-1 -1 4900 1;
#X obj 216 126 vsl 25 50 0 1 0 0 empty empty dry/wet 0 59 0 10 -262130
-1 -1 1400 1;
#X text 109 105 reverb;
#X msg 149 245 damping \$1;
#X msg 188 272 width \$1;
#X msg 263 320 wet \$1;
#X obj 350 10 loadbang;
#X msg 185 51 0.85;
#X msg 228 51 0.5;
#X msg 266 52 1;
#X msg 301 52 0.3;
#X msg 336 53 0;
#X obj 274 103 tgl 15 0 empty empty bypass -40 6 0 10 -262130 -1 -1
0 1;
#X msg 288 341 bypass \$1;
#X msg 375 56 1;
#X msg 109 218 roomsize \$1;
#X obj 279 139 tgl 15 0 empty empty freeze -35 7 0 10 -262130 -1 -1
0 1;
#X msg 197 326 dry \$1;
#X obj 212 296 expr 1-$f1;
#X msg 365 291 freeze \$1;
#X connect 0 0 1 0;
#X connect 0 0 1 1;
#X connect 0 0 2 0;
#X connect 1 0 2 0;
#X connect 1 1 2 0;
#X connect 4 0 21 0;
#X connect 5 0 9 0;
#X connect 6 0 10 0;
#X connect 7 0 11 0;
#X connect 7 0 24 0;
#X connect 9 0 1 0;
#X connect 10 0 1 0;
#X connect 11 0 1 0;
#X connect 12 0 13 0;
#X connect 12 0 14 0;
#X connect 12 0 15 0;
#X connect 12 0 16 0;
#X connect 12 0 17 0;
#X connect 12 0 20 0;
#X connect 13 0 4 0;
#X connect 14 0 5 0;
#X connect 15 0 6 0;
#X connect 17 0 7 0;
#X connect 17 0 22 0;
#X connect 18 0 19 0;
#X connect 19 0 1 0;
#X connect 20 0 18 0;
#X connect 21 0 1 0;
#X connect 22 0 25 0;
#X connect 23 0 1 0;
#X connect 24 0 23 0;
#X connect 25 0 1 0;
#X coords 0 -1 1 1 200 100 1 100 100;
